<?xml version="1.0" encoding="UTF-8" standalone="no"?>
<svg width="138px" height="57px" viewBox="0 0 138 57" version="1.1" xmlns="http://www.w3.org/2000/svg" xmlns:xlink="http://www.w3.org/1999/xlink" xmlns:sketch="http://www.bohemiancoding.com/sketch/ns">
    <!-- Generator: Sketch 3.4 (15575) - http://www.bohemiancoding.com/sketch -->
    <title>icons</title>
    <desc>Created with Sketch.</desc>
    <defs></defs>
    <g id="Page-1" stroke="none" stroke-width="1" fill="none" fill-rule="evenodd" sketch:type="MSPage">
        <g id="icons" sketch:type="MSLayerGroup" fill="#000000">
            <g id="main-logo" transform="translate(1.000000, 1.000000)" sketch:type="MSShapeGroup">
                <path d="M55,53 L3,53 L3,3.001 L55,3.001 L55,14 L58,14 L58,0 L0,0 L0.009,56 L58,55.999 L58,47 L55,47 L55,53 L55,53 Z M28.904,26.513 C30.14,25.582 30.758,24.159 30.758,22.247 C30.758,20.662 30.21,19.239 29.113,17.981 C28.507,17.306 27.603,16.768 26.403,16.373 C25.2,15.978 23.656,16 22,16 L13,16 L13,40 L23,40 C26.359,40 29.02,39.465 30.373,37.95 C31.539,36.643 32.123,35.139 32.123,33.436 C32.123,31.899 31.673,30.611 30.776,29.576 C29.878,28.537 28.67,27.856 27.154,27.529 C27.574,27.341 27.866,27.207 28.029,27.125 C28.191,27.045 28.483,26.84 28.904,26.513 L28.904,26.513 Z M18.056,20.395 L20.681,20.395 C22.29,20.395 23.433,20.569 24.109,20.918 C24.786,21.268 25.124,21.985 25.124,23.069 C25.124,24.153 24.757,24.86 24.022,25.183 C23.288,25.511 22.161,25.672 20.645,25.672 L18.055,25.672 L18.055,20.395 L18.056,20.395 Z M25.317,35.028 C24.535,35.415 23.362,35.605 21.8,35.605 L18.056,35.605 L18.056,29.975 L21.275,29.975 C23.094,29.975 24.418,30.156 25.247,30.516 C26.074,30.878 26.488,31.626 26.488,32.756 C26.489,33.886 26.099,34.644 25.317,35.028 L25.317,35.028 Z M52,30 C52,27.273 50.994,25.01 49.186,23.447 C47.378,21.885 45.18,21.106 42.59,21.106 C40.002,21.106 37.757,21.979 35.856,23.726 C33.954,25.476 33.004,27.83 33.004,30.789 C33.004,33.752 33.937,36.111 35.803,37.873 C37.668,39.631 40.03,40.514 42.888,40.514 C45.745,40.514 48.235,39.509 50.358,37.506 L47.42,34.324 C46.23,35.558 44.713,36.178 42.871,36.178 C41.728,36.178 40.702,35.85 39.792,35.198 C38.881,34.547 38.162,33.027 38,32 L52,32 L52,30 L52,30 Z M38.321,28.938 C38.46,27.868 38.963,27.013 39.826,26.385 C40.689,25.756 41.639,25.441 42.678,25.441 C43.716,25.441 44.596,25.745 45.319,26.352 C46.042,26.957 46.462,27.82 46.579,28.938 L38.321,28.938 L38.321,28.938 Z M61.575,21.945 C60.56,22.48 59.714,23.132 59.038,23.903 L59,21.001 L54,21.001 L54,40 L59,40 L59.038,32.086 C59.038,30.268 59.424,28.804 60.193,27.697 C60.963,26.59 62.129,26.035 63.693,26.035 L64.708,26.035 L64.672,21.106 C63.622,21.129 62.59,21.407 61.575,21.945 L61.575,21.945 Z M67,40 L72,40 L72,14 L67,14 L67,40 L67,40 Z M76,40 L81,40 L81,21.001 L76,21.001 L76,40 L76,40 Z M78.496,19.008 C79.197,19.008 79.789,18.765 80.272,18.285 C80.755,17.802 80.997,17.21 80.997,16.51 C80.997,15.809 80.755,15.215 80.272,14.735 C79.789,14.252 79.197,14.009 78.496,14.009 C77.795,14.009 77.203,14.251 76.72,14.735 C76.237,15.215 75.995,15.809 75.995,16.51 C75.995,17.21 76.237,17.802 76.72,18.285 C77.203,18.765 77.795,19.008 78.496,19.008 L78.496,19.008 Z M95.493,21.106 C93.511,21.106 91.726,21.908 90.139,23.518 L90,21.001 L85,21.001 L85,40 L90,40 L90,30 C90,28.531 90.529,27.162 91.312,26.402 C92.092,25.644 93.009,25.266 94.058,25.266 C96.18,25.267 97,27.108 97,30 L97,40 L102,40 L102,29 C102,26.669 101.82,24.604 100.48,23.203 C99.137,21.803 97.476,21.106 95.493,21.106 L95.493,21.106 Z M120.983,23.447 C119.175,21.885 116.977,21.106 114.387,21.106 C111.799,21.106 109.554,21.979 107.653,23.726 C105.751,25.476 104.801,27.83 104.801,30.789 C104.801,33.752 105.733,36.111 107.6,37.873 C109.465,39.631 111.827,40.514 114.684,40.514 C117.541,40.514 120.032,39.509 122.154,37.506 L119.216,34.324 C118.026,35.558 116.51,36.178 114.667,36.178 C113.524,36.178 112.497,35.85 111.588,35.198 C110.678,34.547 110.162,33.027 110,32 L124,32 L124,30 C124,27.273 122.791,25.01 120.983,23.447 L120.983,23.447 Z M110.118,28.938 C110.257,27.868 110.76,27.013 111.623,26.385 C112.486,25.756 113.437,25.441 114.475,25.441 C115.513,25.441 116.392,25.745 117.116,26.352 C117.839,26.957 118.259,27.82 118.376,28.938 L110.118,28.938 L110.118,28.938 Z M133.859,21.945 C132.844,22.48 131.676,23.229 131,24 L131,21.001 L126,21.001 L126,40 L131,40 L131,32 C131,30.182 131.708,28.804 132.477,27.697 C133.247,26.59 134.413,26.035 135.976,26.035 L137,25.999 L137,20.999 C135.95,21.021 134.874,21.407 133.859,21.945 L133.859,21.945 Z" id="Shape"></path>
            </g>
            <g id="small-logo" transform="translate(1.000000, 1.000000)" sketch:type="MSShapeGroup">
                <path d="M14.154,11.528 C14.574,11.341 14.866,11.207 15.029,11.125 C15.191,11.044 15.483,10.839 15.904,10.513 C17.139,9.581 17.758,8.159 17.758,6.246 C17.758,4.662 17.21,3.238 16.113,1.981 C15.507,1.305 14.603,0.768 13.403,0.372 C12.2,-0.022 10.656,-5.54840462e-17 9,-5.54840462e-17 L0,-5.54840462e-17 L0,24 L10,24 C13.359,24 16.02,23.465 17.373,21.95 C18.539,20.642 19.123,19.138 19.123,17.436 C19.123,15.899 18.673,14.611 17.776,13.574 C16.877,12.537 15.67,11.855 14.154,11.528 L14.154,11.528 Z M5.056,4.395 L7.681,4.395 C9.29,4.395 10.433,4.568 11.109,4.918 C11.785,5.268 12.124,5.985 12.124,7.068 C12.124,8.154 11.757,8.859 11.022,9.182 C10.287,9.51 9.161,9.673 7.645,9.673 L5.055,9.673 L5.055,4.395 L5.056,4.395 Z M12.317,19.028 C11.535,19.414 10.362,19.605 8.8,19.605 L5.056,19.605 L5.056,13.975 L8.275,13.975 C10.094,13.975 11.419,14.154 12.247,14.516 C13.074,14.878 13.488,15.626 13.488,16.756 C13.489,17.886 13.099,18.645 12.317,19.028 L12.317,19.028 Z M39,14 C39,11.273 37.994,9.009 36.186,7.447 C34.378,5.885 32.18,5.106 29.59,5.106 C27.002,5.106 24.757,5.979 22.856,7.725 C20.954,9.476 20.004,11.829 20.004,14.788 C20.004,17.751 20.936,20.111 22.803,21.873 C24.668,23.631 27.03,24.514 29.888,24.514 C32.745,24.514 35.235,23.508 37.358,21.505 L34.419,18.323 C33.229,19.558 31.712,20.177 29.87,20.177 C28.727,20.177 27.701,19.85 26.791,19.197 C25.881,18.546 25.163,17.026 25,15.999 L39,15.999 L39,14 L39,14 Z M25.321,12.938 C25.461,11.868 25.963,11.013 26.826,10.386 C27.689,9.755 28.64,9.44 29.678,9.44 C30.716,9.44 31.595,9.745 32.319,10.351 C33.043,10.956 33.463,11.819 33.579,12.938 L25.321,12.938 L25.321,12.938 Z" id="Shape"></path>
            </g>
            <g id="icon-menu_320" transform="translate(1.000000, 1.000000)" sketch:type="MSShapeGroup">
                <path d="M0,0 L0,2.999 L34,2.999 L34,0 L0,0 L0,0 Z M0,12.001 L34,12.001 L34,8.999 L0,8.999 L0,12.001 L0,12.001 Z M0,21 L34,21 L34,18 L0,18 L0,21 L0,21 Z" id="Shape"></path>
            </g>
            <g id="icon-menu_768" transform="translate(1.000000, 1.000000)" sketch:type="MSShapeGroup">
                <rect id="Rectangle-path" x="0" y="0" width="44" height="3"></rect>
                <rect id="Rectangle-path" x="0" y="9" width="44" height="3.001"></rect>
                <rect id="Rectangle-path" x="0" y="18" width="44" height="3"></rect>
            </g>
            <g id="arrow-down" transform="translate(1.000000, 1.000000)" sketch:type="MSShapeGroup">
                <path d="M19,5.25 L13.749,0 L13,0.75 L17.249,5.001 L0,5.001 L0,6.001 L17.248,6.001 L13,10.25 L13.749,11 L19,5.75 L19,5.25 Z" id="Shape"></path>
            </g>
            <g id="arrow-right-slide" transform="translate(1.000000, 1.000000)" sketch:type="MSShapeGroup">
                <path d="M12,10.4 L1.4,0 L0,1.4 L9.1,10.5 L0,19.6 L1.4,21 L12,10.6 L12,10.4 Z" id="Shape"></path>
            </g>
            <g id="filter-bar" transform="translate(1.000000, 1.000000)" sketch:type="MSShapeGroup">
                <path d="M0,0 L0,1 L14,1 L14,0 L0,0 L0,0 Z M0,5 L14,5 L14,4 L0,4 L0,5 L0,5 Z M0,9 L14,9 L14,8 L0,8 L0,9 L0,9 Z" id="Shape"></path>
            </g>
            <g id="plus-circle" sketch:type="MSShapeGroup">
                <path d="M8.3,43.7 C-1.5,33.9 -1.5,18.1 8.3,8.3 C18.1,-1.5 33.9,-1.5 43.7,8.3 C53.5,18.1 53.5,33.9 43.7,43.7 C33.9,53.4 18.1,53.4 8.3,43.7 L8.3,43.7 Z M42.3,9.7 C33.3,0.7 18.8,0.7 9.8,9.7 C0.8,18.7 0.8,33.2 9.8,42.2 C18.8,51.2 33.3,51.2 42.3,42.2 C51.2,33.3 51.2,18.7 42.3,9.7 L42.3,9.7 Z" id="Shape"></path>
                <path d="M33.5,17 L35,18.5 L18.5,35 L17,33.5 L33.5,17 L33.5,17 Z" id="Shape"></path>
                <path d="M35,33.5 L33.5,35 L17,18.5 L18.5,17 L35,33.5 L35,33.5 Z" id="Shape"></path>
            </g>
            <g id="tweet-icon" transform="translate(1.000000, 1.000000)" sketch:type="MSShapeGroup">
                <path d="M33.213,7.472 C33.229,7.796 33.235,8.121 33.235,8.451 C33.235,18.458 25.6,30 11.637,30 C7.348,30 3.36,28.748 0,26.598 C0.596,26.67 1.199,26.702 1.811,26.702 C5.37,26.702 8.64,25.494 11.237,23.461 C7.917,23.402 5.112,21.212 4.148,18.202 C4.611,18.292 5.085,18.337 5.575,18.337 C6.268,18.337 6.939,18.247 7.574,18.07 C4.105,17.377 1.486,14.312 1.486,10.644 L1.486,10.549 C2.511,11.117 3.681,11.46 4.925,11.496 C2.888,10.14 1.549,7.818 1.549,5.191 C1.549,3.802 1.924,2.505 2.577,1.384 C6.319,5.967 11.915,8.981 18.223,9.297 C18.094,8.742 18.027,8.166 18.027,7.571 C18.026,3.388 21.425,0 25.618,0 C27.8,0 29.773,0.919 31.158,2.389 C32.886,2.051 34.512,1.42 35.98,0.554 C35.411,2.322 34.21,3.807 32.642,4.74 C34.177,4.56 35.641,4.154 37,3.551 C35.984,5.07 34.697,6.403 33.213,7.472 L33.213,7.472 Z" id="Shape"></path>
            </g>
            <g id="face-icon" transform="translate(1.000000, 1.000000)" sketch:type="MSShapeGroup">
                <path d="M25.5,0 C11.417,0 0,11.418 0,25.501 C0,39.585 11.417,51 25.5,51 C39.583,51 51,39.585 51,25.501 C51,11.418 39.583,0 25.5,0 L25.5,0 Z M29.963,26.01 L27,26 L27,39 L22,39 L22,26 L20,26 L20,22 L22,22 L22,19 C22,16.914 22.647,13 27,13 L31,13 L31,18 L28,18 C27.536,18 27,18.004 27,19 L27,22 L31,22 L29.963,26.01 L29.963,26.01 Z" id="Shape"></path>
            </g>
            <g id="twitter-icon" transform="translate(1.000000, 1.000000)" sketch:type="MSShapeGroup">
                <path d="M25.5,0 C11.418,0 0,11.418 0,25.501 C0,39.585 11.418,51 25.5,51 C39.583,51 51,39.585 51,25.501 C51,11.418 39.583,0 25.5,0 L25.5,0 Z M36.339,21.239 C36.35,21.466 36.355,21.692 36.355,21.923 C36.355,28.92 30.99,36.987 21.178,36.987 C18.165,36.987 15.362,36.111 13.001,34.609 C13.42,34.656 13.844,34.681 14.273,34.681 C16.774,34.681 19.072,33.837 20.897,32.415 C18.564,32.372 16.593,30.84 15.916,28.739 C16.241,28.799 16.574,28.834 16.918,28.834 C17.405,28.834 17.876,28.768 18.322,28.648 C15.885,28.159 14.044,26.02 14.044,23.456 L14.044,23.39 C14.765,23.787 15.587,24.024 16.461,24.052 C15.03,23.104 14.089,21.481 14.089,19.645 C14.089,18.674 14.352,17.764 14.811,16.983 C17.441,20.186 21.373,22.295 25.805,22.514 C25.715,22.127 25.667,21.724 25.667,21.308 C25.667,18.384 28.055,16.015 31.002,16.015 C32.535,16.015 33.922,16.658 34.895,17.685 C36.109,17.449 37.251,17.007 38.283,16.4 C37.883,17.638 37.039,18.674 35.938,19.33 C37.017,19.204 38.045,18.918 39,18.499 C38.286,19.561 37.381,20.492 36.339,21.239 L36.339,21.239 Z" id="Shape"></path>
            </g>
            <g id="google-icon" transform="translate(1.000000, 1.000000)" sketch:type="MSShapeGroup">
                <path d="M20.321,15.475 C18.297,15.414 16.936,17.452 17.288,20.109 C17.637,22.77 19.561,24.629 21.589,24.691 C23.613,24.75 24.777,23.038 24.429,20.377 C24.08,17.718 22.347,15.535 20.321,15.475 L20.321,15.475 Z" id="Shape"></path>
                <path d="M21.173,30.135 C18.153,30.101 15.597,32.04 15.597,34.29 C15.597,36.584 17.777,38.496 20.795,38.496 C25.039,38.496 26.518,36.702 26.518,34.405 C26.518,34.128 26.484,33.857 26.421,33.596 C26.088,32.297 24.769,31.584 23.128,30.446 C22.533,30.253 21.876,30.141 21.173,30.135 L21.173,30.135 Z" id="Shape"></path>
                <path d="M25.5,0 C11.417,0 0,11.418 0,25.501 C0,39.585 11.417,51 25.5,51 C39.583,51 51,39.585 51,25.501 C51,11.418 39.583,0 25.5,0 L25.5,0 Z M27.448,20.264 C27.448,21.927 26.528,23.265 25.228,24.28 C23.958,25.273 23.718,25.687 23.718,26.531 C23.718,27.25 25.235,28.321 25.932,28.843 C28.358,30.664 28.85,31.81 28.85,34.085 C28.85,36.927 25.788,39.75 20.811,39.75 C16.444,39.75 12.758,37.976 12.758,35.134 C12.758,32.251 15.815,29.244 20.182,29.244 C20.659,29.244 21.094,29.231 21.545,29.231 C20.947,28.654 20.465,28.151 20.465,27.274 C20.465,26.751 20.63,26.253 20.863,25.807 C20.627,25.823 20.384,25.838 20.135,25.838 C16.547,25.838 14.458,23.317 14.458,20.157 C14.458,17.063 17.638,14.249 21.451,14.249 L28.967,14.249 L27.287,16.014 L25.314,16.014 C26.709,16.812 27.448,18.452 27.448,20.264 L27.448,20.264 Z M38,20.001 L35,20.001 L35,23 L33,23 L33,20.001 L30,20.001 L30,18 L33,18 L33,15.001 L35,15.001 L35,18 L38,18 L38,20.001 L38,20.001 Z" id="Shape"></path>
            </g>
            <g id="linkedin-icon" transform="translate(1.000000, 1.000000)" sketch:type="MSShapeGroup">
                <path d="M25.5,0 C11.416,0 0,11.418 0,25.501 C0,39.585 11.416,51 25.5,51 C39.583,51 51,39.585 51,25.501 C51,11.418 39.583,0 25.5,0 L25.5,0 Z M18,36.001 L13,36.001 L13,20.001 L18,20.001 L18,36.001 L18,36.001 Z M15.482,16.998 L15.453,16.998 C13.964,16.998 13,15.887 13,14.5 C13,13.082 13.994,12.001 15.51,12.001 C17.03,12.001 17.966,13.082 17.993,14.5 C17.994,15.887 17.03,16.998 15.482,16.998 L15.482,16.998 Z M38,36.001 L33,36.001 L33,27 C33,24.79 31.993,23.67 30.014,23.67 C28.506,23.67 27.605,24.691 27.209,25.672 C27.064,26.024 27.028,26.509 27.028,27.005 L27,36.001 L22,36.001 C22,36.001 22.069,21.54 22,20.001 L27,20.001 L27.028,22.073 C27.757,20.95 29.099,19 32,19 C35.596,19 38,21.948 38,27 L38,36.001 L38,36.001 Z" id="Shape"></path>
            </g>
            <g id="dribbble-icon" transform="translate(1.000000, 1.000000)" sketch:type="MSShapeGroup">
                <path d="M25.5,0 C11.416,0 0,11.418 0,25.501 C0,39.585 11.416,51 25.5,51 C39.582,51 51,39.585 51,25.501 C51,11.418 39.582,0 25.5,0 L25.5,0 Z M37.988,27.568 C37.823,28.386 37.571,29.193 37.244,29.964 C36.927,30.717 36.531,31.448 36.07,32.131 C35.613,32.806 35.09,33.438 34.514,34.017 C33.938,34.593 33.303,35.116 32.627,35.571 C31.945,36.031 31.217,36.426 30.46,36.748 C29.691,37.074 28.886,37.323 28.064,37.491 C27.227,37.663 26.362,37.75 25.5,37.75 C24.634,37.75 23.772,37.663 22.932,37.491 C22.114,37.323 21.307,37.074 20.536,36.748 C19.782,36.427 19.051,36.031 18.369,35.571 C17.697,35.116 17.061,34.593 16.482,34.017 C15.907,33.438 15.383,32.806 14.929,32.131 C14.468,31.448 14.073,30.717 13.752,29.964 C13.425,29.193 13.176,28.386 13.008,27.568 C12.837,26.73 12.75,25.865 12.75,25 C12.75,24.138 12.837,23.272 13.008,22.436 C13.176,21.617 13.425,20.807 13.752,20.039 C14.072,19.283 14.468,18.555 14.929,17.873 C15.383,17.198 15.907,16.562 16.482,15.986 C17.061,15.41 17.697,14.887 18.369,14.429 C19.051,13.969 19.782,13.574 20.536,13.252 C21.307,12.93 22.114,12.677 22.932,12.513 C23.773,12.337 24.634,12.25 25.5,12.25 C26.362,12.25 27.228,12.337 28.064,12.513 C28.886,12.677 29.692,12.93 30.46,13.252 C31.217,13.573 31.945,13.969 32.627,14.429 C33.303,14.887 33.938,15.409 34.514,15.986 C35.089,16.562 35.613,17.198 36.07,17.873 C36.531,18.555 36.926,19.283 37.244,20.039 C37.571,20.808 37.823,21.617 37.988,22.436 C38.162,23.273 38.25,24.138 38.25,25 C38.25,25.865 38.162,26.73 37.988,27.568 L37.988,27.568 Z" id="Shape"></path>
                <path d="M32.69,16.829 C30.772,15.139 28.254,14.111 25.5,14.111 C24.615,14.111 23.757,14.221 22.935,14.42 C23.097,14.635 25.142,17.352 27.003,20.773 C31.112,19.233 32.662,16.872 32.69,16.829 L32.69,16.829 Z" id="Shape"></path>
                <path d="M24.896,21.427 C23.013,18.077 20.999,15.348 20.853,15.155 C17.818,16.587 15.551,19.385 14.845,22.757 C15.131,22.762 19.669,22.814 24.896,21.427 L24.896,21.427 Z" id="Shape"></path>
                <path d="M26.253,25.084 C26.397,25.04 26.536,24.997 26.683,24.956 C26.409,24.338 26.11,23.715 25.799,23.104 C20.193,24.782 14.814,24.661 14.62,24.657 C14.617,24.769 14.611,24.885 14.611,25 C14.611,27.795 15.666,30.345 17.397,32.271 C17.4,32.266 20.381,26.982 26.253,25.084 L26.253,25.084 Z" id="Shape"></path>
                <path d="M27.841,22.395 C28.096,22.912 28.339,23.442 28.566,23.973 C28.647,24.163 28.725,24.35 28.799,24.536 C32.541,24.066 36.227,24.856 36.385,24.89 C36.358,22.307 35.436,19.938 33.907,18.082 C33.889,18.114 32.143,20.639 27.841,22.395 L27.841,22.395 Z" id="Shape"></path>
                <path d="M29.465,26.255 C30.891,30.18 31.473,33.373 31.582,34.03 C34.028,32.381 35.766,29.763 36.248,26.73 C36.024,26.656 32.979,25.691 29.465,26.255 L29.465,26.255 Z" id="Shape"></path>
                <path d="M27.352,26.783 C21.021,28.988 18.895,33.398 18.814,33.569 C20.662,35.01 22.974,35.888 25.501,35.888 C27.007,35.888 28.445,35.584 29.75,35.026 C29.591,34.075 28.956,30.74 27.424,26.758 C27.398,26.768 27.377,26.774 27.352,26.783 L27.352,26.783 Z" id="Shape"></path>
            </g>
            <g id="vimeo-icon" transform="translate(1.000000, 1.000000)" sketch:type="MSShapeGroup">
                <path d="M25.5,0 C11.418,0 0,11.418 0,25.501 C0,39.586 11.418,51 25.5,51 C39.582,51 51,39.586 51,25.501 C51,11.418 39.582,0 25.5,0 L25.5,0 Z M38.122,19.717 C36.696,27.741 28.737,34.539 26.342,36.094 C23.946,37.648 21.762,35.471 20.971,33.827 C20.062,31.949 17.345,21.786 16.634,20.946 C15.922,20.105 13.785,21.786 13.785,21.786 L12.75,20.43 C12.75,20.43 17.086,15.25 20.386,14.603 C23.886,13.915 23.882,19.975 24.724,23.34 C25.537,26.594 26.085,28.454 26.795,28.454 C27.508,28.454 28.866,26.64 30.355,23.859 C31.844,21.073 30.292,18.615 27.377,20.364 C28.541,13.373 39.547,11.692 38.122,19.717 L38.122,19.717 Z" id="Shape"></path>
            </g>
            <g id="name-icon" transform="translate(1.000000, 1.000000)" sketch:type="MSShapeGroup">
                <path d="M17.848,16.01 C16.751,15.553 14.146,14.656 12.543,14.183 C12.406,14.14 12.385,14.133 12.385,13.565 C12.385,13.096 12.578,12.623 12.767,12.223 C12.971,11.788 13.213,11.058 13.3,10.403 C13.543,10.12 13.874,9.564 14.087,8.505 C14.274,7.57 14.187,7.231 14.063,6.912 C14.05,6.879 14.037,6.846 14.027,6.812 C13.98,6.593 14.045,5.455 14.205,4.572 C14.315,3.968 14.177,2.679 13.342,1.614 C12.813,0.941 11.805,0.114 9.962,0 L8.951,0.001 C7.14,0.114 6.13,0.941 5.603,1.615 C4.768,2.681 4.629,3.969 4.739,4.573 C4.9,5.456 4.964,6.594 4.918,6.809 C4.908,6.846 4.895,6.88 4.881,6.913 C4.758,7.232 4.67,7.571 4.857,8.506 C5.069,9.565 5.4,10.121 5.644,10.404 C5.73,11.059 5.972,11.789 6.177,12.224 C6.326,12.542 6.397,12.975 6.397,13.587 C6.397,14.154 6.376,14.161 6.248,14.202 C4.591,14.69 1.953,15.643 0.97,16.072 C0.191,16.406 0,17.005 0,17.546 L0,20.043 C0,20.396 0.211,21 0.97,21 L8.354,21 L9.4,21 L9.583,21 L10.646,21 L18.03,21 C18.789,21 19,20.396 19,20.043 L19,17.546 C19,17.005 18.627,16.345 17.848,16.01 L17.848,16.01 Z M17.994,20.001 L10.646,20.001 L9.583,20.001 L9.4,20.001 L8.354,20.001 L1,20.001 L1,17.546 C1,17.242 1.089,17.107 1.371,16.986 C2.318,16.572 4.937,15.628 6.551,15.153 C7.398,14.884 7.398,14.133 7.398,13.586 C7.398,12.823 7.298,12.255 7.083,11.797 C6.919,11.45 6.71,10.824 6.638,10.273 L6.598,9.977 L6.4,9.75 C6.293,9.625 6.023,9.237 5.838,8.309 C5.693,7.586 5.758,7.42 5.809,7.285 C5.838,7.213 5.866,7.141 5.887,7.06 L5.892,7.038 L5.897,7.017 C5.997,6.545 5.862,5.148 5.723,4.393 C5.66,4.047 5.74,3.061 6.391,2.229 C6.789,1.721 7.562,1.097 8.985,0.999 L9.93,0.998 C11.092,1.078 11.975,1.491 12.554,2.229 C13.204,3.061 13.283,4.047 13.221,4.395 C13.08,5.17 12.947,6.543 13.049,7.021 L13.057,7.059 L13.068,7.095 C13.083,7.145 13.101,7.198 13.122,7.248 L13.131,7.273 L13.132,7.274 C13.189,7.42 13.253,7.584 13.108,8.308 C12.921,9.235 12.652,9.625 12.545,9.75 L12.35,9.976 L12.311,10.271 C12.238,10.821 12.028,11.449 11.864,11.797 C11.629,12.297 11.387,12.899 11.387,13.564 C11.387,14.113 11.387,14.865 12.262,15.14 C13.826,15.601 16.404,16.488 17.455,16.927 C17.852,17.099 18,17.398 18,17.546 L17.994,20.001 L17.994,20.001 Z" id="Shape"></path>
            </g>
            <g id="mail-icon" transform="translate(1.000000, 1.000000)" sketch:type="MSShapeGroup">
                <path d="M23.982,0 L1.016,0 L0.816,0 L0.216,0 L0,0 L0,15.999 L25,15.999 L25,0 L24.135,0 L23.982,0 L23.982,0 Z M22.982,1 L13.324,10.658 C12.885,11.098 12.115,11.098 11.676,10.658 L2.016,1 L22.982,1 L22.982,1 Z M1,1.397 L7.493,7.889 L1,14.382 L1,1.397 L1,1.397 Z M1.797,15 L8.201,8.598 L10.969,11.366 C11.377,11.774 11.922,12 12.5,12 C13.078,12 13.623,11.774 14.031,11.366 L16.799,8.598 L23.201,15 L1.797,15 L1.797,15 Z M24,14.385 L17.506,7.89 L24,1.396 L24,14.385 L24,14.385 Z" id="Shape"></path>
            </g>
            <g id="text-icon" transform="translate(1.000000, 1.000000)" sketch:type="MSShapeGroup">
                <path d="M0,3 L0,4 L20,4 L20,3 L0,3 L0,3 Z M15,0 L0,0 L0,1 L15,1 L15,0 L15,0 Z M0,7 L20,7 L20,6 L0,6 L0,7 L0,7 Z M0,10 L20,10 L20,9 L0,9 L0,10 L0,10 Z M0,13 L20,13 L20,12 L0,12 L0,13 L0,13 Z" id="Shape"></path>
            </g>
            <g id="back-top" transform="translate(1.000000, 1.000000)" sketch:type="MSShapeGroup">
                <path d="M46,15.46 L30.54,0 L29,1.541 L42.46,15 L0,15 L0,17 L42.46,17 L29,30.459 L30.54,32 L46,16.54 L46,15.46 Z" id="Shape"></path>
            </g>
        </g>
    </g>
</svg>