<?xml version="1.0" encoding="UTF-8" standalone="no"?>
<svg width="87px" height="87px" viewBox="0 0 87 87" version="1.1" xmlns="http://www.w3.org/2000/svg" xmlns:xlink="http://www.w3.org/1999/xlink" xmlns:sketch="http://www.bohemiancoding.com/sketch/ns">
    <!-- Generator: Sketch 3.4 (15575) - http://www.bohemiancoding.com/sketch -->
    <title>mail-icon</title>
    <desc>Created with Sketch.</desc>
    <defs></defs>
    <g id="Page-1" stroke="none" stroke-width="1" fill="none" fill-rule="evenodd" sketch:type="MSPage">
        <g id="icons-(1)" sketch:type="MSLayerGroup" transform="translate(-13.000000, -38.000000)" fill="#000000">
            <g id="Group" sketch:type="MSShapeGroup">
                <g id="mail-icon" transform="translate(13.000000, 38.000000)">
                    <path d="M62.6651304,33 L23.7227826,33 L23.3836522,33 L22.3662609,33 L22,33 L22,60.2263684 L64.3913043,60.2263684 L64.3913043,33 L62.9245652,33 L62.6651304,33 L62.6651304,33 Z M60.9694783,34.7017544 L44.5928696,51.1372982 C43.8484783,51.8860702 42.5428261,51.8860702 41.7984348,51.1372982 L25.4184348,34.7017544 L60.9694783,34.7017544 L60.9694783,34.7017544 Z M23.6956522,35.3773509 L34.7055217,46.4251404 L23.6956522,57.4746316 L23.6956522,35.3773509 L23.6956522,35.3773509 Z M25.047087,58.5263158 L35.9060435,47.6316842 L40.5996087,52.3421404 C41.2914348,53.0364561 42.2155652,53.4210526 43.1956522,53.4210526 C44.1757391,53.4210526 45.0998696,53.0364561 45.7916957,52.3421404 L50.4852609,47.6316842 L61.3408261,58.5263158 L25.047087,58.5263158 L25.047087,58.5263158 Z M62.6956522,57.4797368 L51.684087,46.4268421 L62.6956522,35.3756491 L62.6956522,57.4797368 L62.6956522,57.4797368 Z M0,43.3964386 C0,67.3639474 19.3592609,86.7894737 43.2391304,86.7894737 C67.119,86.7894737 86.4782609,67.3639474 86.4782609,43.3964386 C86.4782609,19.4306316 67.119,0 43.2391304,0 C19.3592609,0 0,19.4306316 0,43.3964386 Z" id="Shape"></path>
                </g>
            </g>
        </g>
    </g>
</svg>